HIERARCHY
ROOT Hips
{
	OFFSET 0.00000 0.00000 0.00000
	CHANNELS 6 Xposition Yposition Zposition Zrotation Yrotation Xrotation 
	JOINT LHipJoint
	{
		OFFSET 0 0 0
		CHANNELS 3 Zrotation Yrotation Xrotation
		JOINT LeftUpLeg
		{
			OFFSET 1.61024 -1.73873 0.75100
			CHANNELS 3 Zrotation Yrotation Xrotation
			JOINT LeftLeg
			{
				OFFSET 2.29819 -6.31424 0.00000
				CHANNELS 3 Zrotation Yrotation Xrotation
				JOINT LeftFoot
				{
					OFFSET 2.76618 -7.60002 0.00000
					CHANNELS 3 Zrotation Yrotation Xrotation
					JOINT LeftToeBase
					{
						OFFSET 0.16838 -0.46263 2.02361
						CHANNELS 3 Zrotation Yrotation Xrotation
						End Site
						{
							OFFSET 0.00000 -0.00000 1.04662
						}
					}
				}
			}
		}
	}
	JOINT RHipJoint
	{
		OFFSET 0 0 0
		CHANNELS 3 Zrotation Yrotation Xrotation
		JOINT RightUpLeg
		{
			OFFSET -1.46153 -1.73873 0.75100
			CHANNELS 3 Zrotation Yrotation Xrotation
			JOINT RightLeg
			{
				OFFSET -2.38373 -6.54924 0.00000
				CHANNELS 3 Zrotation Yrotation Xrotation
				JOINT RightFoot
				{
					OFFSET -2.80314 -7.70157 0.00000
					CHANNELS 3 Zrotation Yrotation Xrotation
					JOINT RightToeBase
					{
						OFFSET -0.16142 -0.44349 2.02101
						CHANNELS 3 Zrotation Yrotation Xrotation
						End Site
						{
							OFFSET -0.00000 -0.00000 1.04381
						}
					}
				}
			}
		}
	}
	JOINT LowerBack
	{
		OFFSET 0 0 0
		CHANNELS 3 Zrotation Yrotation Xrotation
		JOINT Spine
		{
			OFFSET -0.01629 1.66985 0.14750
			CHANNELS 3 Zrotation Yrotation Xrotation
			JOINT Spine1
			{
				OFFSET 0.02086 1.62378 0.20980
				CHANNELS 3 Zrotation Yrotation Xrotation
				JOINT Neck
				{
					OFFSET 0 0 0
					CHANNELS 3 Zrotation Yrotation Xrotation
					JOINT Neck1
					{
						OFFSET -0.05690 1.78719 0.08702
						CHANNELS 3 Zrotation Yrotation Xrotation
						JOINT Head
						{
							OFFSET 0.16035 1.73871 -0.38470
							CHANNELS 3 Zrotation Yrotation Xrotation
							End Site
							{
								OFFSET 0.05645 1.80914 -0.14081
							}
						}
					}
				}
				JOINT LeftShoulder
				{
					OFFSET 0 0 0
					CHANNELS 3 Zrotation Yrotation Xrotation
					JOINT LeftArm
					{
						OFFSET 2.83089 1.66494 -0.46008
						CHANNELS 3 Zrotation Yrotation Xrotation
						JOINT LeftForeArm
						{
							OFFSET 5.54893 -0.00000 -0.00000
							CHANNELS 3 Zrotation Yrotation Xrotation
							JOINT LeftHand
							{
								OFFSET 3.02898 -0.00000 -0.00000
								CHANNELS 3 Zrotation Yrotation Xrotation
								JOINT LeftFingerBase
								{
									OFFSET 0 0 0
									CHANNELS 3 Zrotation Yrotation Xrotation
									JOINT LeftHandIndex1
									{
										OFFSET 0.64095 -0.00000 -0.00000
										CHANNELS 3 Zrotation Yrotation Xrotation
										End Site
										{
											OFFSET 0.51675 -0.00000 -0.00000
										}
									}
								}
								JOINT LThumb
								{
									OFFSET 0 0 0
									CHANNELS 3 Zrotation Yrotation Xrotation
									End Site
									{
										OFFSET 0.52464 -0.00000 0.52464
									}
								}
							}
						}
					}
				}
				JOINT RightShoulder
				{
					OFFSET 0 0 0
					CHANNELS 3 Zrotation Yrotation Xrotation
					JOINT RightArm
					{
						OFFSET -2.84442 1.45761 -0.18088
						CHANNELS 3 Zrotation Yrotation Xrotation
						JOINT RightForeArm
						{
							OFFSET -5.35190 -0.00000 -0.00000
							CHANNELS 3 Zrotation Yrotation Xrotation
							JOINT RightHand
							{
								OFFSET -3.02531 -0.00000 -0.00000
								CHANNELS 3 Zrotation Yrotation Xrotation
								JOINT RightFingerBase
								{
									OFFSET 0 0 0
									CHANNELS 3 Zrotation Yrotation Xrotation
									JOINT RightHandIndex1
									{
										OFFSET -0.78389 -0.00000 -0.00000
										CHANNELS 3 Zrotation Yrotation Xrotation
										End Site
										{
											OFFSET -0.63199 -0.00000 -0.00000
										}
									}
								}
								JOINT RThumb
								{
									OFFSET 0 0 0
									CHANNELS 3 Zrotation Yrotation Xrotation
									End Site
									{
										OFFSET -0.64164 -0.00000 0.64164
									}
								}
							}
						}
					}
				}
			}
		}
	}
}
MOTION
Frames: 11
Frame Time: .0083333
0.1457 17.7975 1.1396 179.4180 65.4250 -166.9300 0.0000 0.0000 0.0000 -10.9249 -21.5999 -5.1542 0.0000 -0.0000 -0.0000 -0.0215 3.5648 -3.8959 1.8501 -8.5467 -24.3873 0.0000 0.0000 0.0000 19.2582 11.2071 -6.0633 -0.4735 -4.4133 12.2423 0.4091 -21.7007 -27.6197 -0.2135 2.9748 -8.2086 -1.1858 -1.6602 -6.4312 -0.3782 -1.8352 -7.1990 0.2075 -0.7250 -3.8184 -5.3351 -1.1642 -12.0318 -9.1896 4.1190 30.3316 -1.8659 0.6286 12.2120 -0.0000 0.0000 0.0000 -70.4785 -7.6133 55.3045 138.3028 -49.0439 -100.2884 -0.0000 0.0000 -19.6242 -20.4978 22.4778 -8.1341 -7.1250 0.0000 -0.0000 -45.6012 47.0697 -2.9335 -0.0000 0.0000 0.0000 53.1905 30.5596 57.5162 -151.1895 39.8518 -109.3609 0.0000 -0.0000 -19.9072 22.7418 16.2811 6.7023 7.1250 -0.0000 -0.0000 31.6538 -13.4992 28.2063
0.1462 17.7979 1.1396 179.4010 65.3144 -166.8890 0.0000 0.0000 0.0000 -10.8940 -21.7168 -5.2001 0.0000 -0.0000 -0.0000 -0.0226 3.5856 -3.8583 1.8997 -8.6539 -24.7185 0.0000 0.0000 0.0000 19.2551 11.1689 -6.1309 -0.4735 -4.4133 12.2423 0.4079 -21.7118 -27.6466 -0.2234 3.0428 -8.3979 -1.2513 -1.8571 -6.4895 -0.2694 -2.0887 -7.2467 0.3475 -0.8442 -3.8270 -6.2895 -2.5625 -11.8563 -10.4805 2.6198 29.7390 -2.3864 -0.2890 11.9430 0.0000 -0.0000 0.0000 -70.4804 -7.2353 54.8425 138.3447 -49.0206 -100.3200 -0.0000 0.0000 -19.6408 -20.3750 22.4876 -8.0850 -7.1250 0.0000 -0.0000 -45.5153 47.0957 -2.9611 0.0000 -0.0000 0.0000 53.2357 30.9574 57.9619 -151.3334 39.7227 -109.4530 0.0000 -0.0000 -20.0270 22.7416 16.1891 6.6657 7.1250 -0.0000 -0.0000 31.6720 -13.5826 28.1609
0.1451 17.7985 1.1393 179.3160 65.2191 -166.9150 0.0000 0.0000 0.0000 -10.9003 -21.8286 -5.2505 0.0000 -0.0000 -0.0000 -0.0225 3.5865 -3.8689 1.9150 -8.6867 -24.8202 0.0000 0.0000 0.0000 19.2205 11.1926 -6.1659 -0.4732 -4.4116 12.2375 0.4040 -21.7483 -27.7350 -0.2158 2.9906 -8.2526 -1.3065 -2.0264 -6.5008 -0.2005 -2.3062 -7.3218 0.4432 -0.9457 -3.8919 -7.2386 -3.9626 -11.3998 -11.7085 1.0211 28.9412 -2.8700 -1.2215 11.5283 0.0000 0.0000 0.0000 -70.4158 -6.8756 54.4290 138.3842 -48.9986 -100.3499 -0.0000 0.0000 -19.6199 -20.1968 22.4487 -7.9961 -7.1250 0.0000 -0.0000 -45.3534 47.0927 -2.9409 0.0000 0.0000 0.0000 53.2976 31.2656 58.3371 -151.4549 39.6132 -109.5306 0.0000 -0.0000 -20.1537 22.8062 16.1937 6.6884 7.1250 -0.0000 -0.0000 31.7036 -13.5705 28.2120
0.1442 17.7997 1.1388 179.3330 65.1363 -166.8760 0.0000 0.0000 0.0000 -10.8620 -21.9117 -5.2813 0.0000 -0.0000 -0.0000 -0.0214 3.5480 -3.8645 1.8992 -8.6529 -24.7155 0.0000 0.0000 0.0000 19.2363 11.1657 -6.1814 -0.4719 -4.4060 12.2217 0.4042 -21.7858 -27.7926 -0.2042 2.9094 -8.0265 -1.3319 -2.2256 -6.4418 -0.1116 -2.5680 -7.3834 0.5441 -1.0712 -3.9805 -8.2002 -5.2369 -10.9022 -12.7443 -0.4909 28.0600 -3.2430 -2.0838 11.0777 0.0000 0.0000 0.0000 -70.3322 -6.5529 53.9084 138.3888 -48.9960 -100.3534 -0.0000 0.0000 -19.4860 -20.0168 22.5184 -7.9426 -7.1250 0.0000 -0.0000 -45.2658 47.1736 -3.0434 0.0000 0.0000 0.0000 53.4377 31.6948 58.7831 -151.4651 39.6041 -109.5370 0.0000 -0.0000 -20.1877 22.8050 16.3870 6.7650 7.1250 -0.0000 -0.0000 31.6647 -13.3951 28.3064
0.1441 17.8004 1.1384 179.3370 65.0464 -166.8410 0.0000 0.0000 0.0000 -10.8184 -22.0016 -5.3163 0.0000 -0.0000 -0.0000 -0.0200 3.5176 -3.9076 1.8675 -8.5844 -24.5037 0.0000 0.0000 0.0000 19.2470 11.1755 -6.2007 -0.4718 -4.4054 12.2199 0.4102 -21.8556 -27.8554 -0.1973 2.8605 -7.8907 -1.4116 -2.4943 -6.3960 -0.0180 -2.9202 -7.4486 0.6775 -1.2390 -4.0600 -8.9451 -6.2771 -10.2955 -13.6462 -1.8362 26.9621 -3.5458 -2.8126 10.5256 0.0000 -0.0000 0.0000 -70.1841 -6.1770 53.2110 138.3842 -48.9986 -100.3499 -0.0000 0.0000 -19.3052 -19.7934 22.4591 -7.8284 -7.1250 0.0000 -0.0000 -45.0546 47.1614 -3.0053 0.0000 -0.0000 0.0000 53.6495 32.3040 59.3420 -151.4768 39.5934 -109.5446 0.0000 -0.0000 -20.3969 22.8464 16.4739 6.8131 7.1250 -0.0000 -0.0000 31.6684 -13.3111 28.3806
0.1446 17.7999 1.1393 179.2490 64.9747 -166.9000 0.0000 0.0000 0.0000 -10.8286 -22.0817 -5.3381 0.0000 0.0000 0.0000 -0.0198 3.5032 -3.8892 1.8756 -8.6021 -24.5584 0.0000 0.0000 0.0000 19.2215 11.2761 -6.1742 -0.4718 -4.4055 12.2204 0.4237 -21.9749 -27.9369 -0.1958 2.8495 -7.8600 -1.5729 -2.7532 -6.3412 0.0640 -3.2545 -7.5538 0.8467 -1.3919 -4.1815 -9.5393 -7.1726 -9.3599 -14.5068 -3.1242 25.6377 -3.8016 -3.4600 9.8286 -0.0000 0.0000 0.0000 -70.0659 -5.8097 52.5592 138.3400 -49.0232 -100.3165 -0.0000 0.0000 -19.0728 -19.7646 22.4928 -7.8272 -7.1250 0.0000 -0.0000 -45.0562 47.1918 -3.0469 -0.0000 0.0000 0.0000 53.8849 32.8176 59.9330 -151.4945 39.5774 -109.5558 0.0000 -0.0000 -20.6827 22.8925 16.4135 6.8042 7.1250 -0.0000 -0.0000 31.7034 -13.3601 28.3860
0.1461 17.8001 1.1392 179.1720 64.9153 -166.9470 0.0000 0.0000 0.0000 -10.8477 -22.1472 -5.3503 0.0000 0.0000 0.0000 -0.0202 3.5140 -3.8884 1.8514 -8.5495 -24.3960 0.0000 0.0000 0.0000 19.1891 11.2989 -6.1801 -0.4726 -4.4089 12.2300 0.3952 -21.9285 -28.0865 -0.1805 2.7364 -7.5457 -1.7117 -2.9369 -6.3699 0.1433 -3.4885 -7.6177 0.9989 -1.4973 -4.2146 -10.2849 -8.0429 -8.3674 -15.1468 -4.4043 24.4442 -3.9376 -4.0864 9.1930 0.0000 -0.0000 0.0000 -70.0598 -5.6363 52.0722 138.2329 -49.0827 -100.2356 -0.0000 0.0000 -18.8155 -19.8475 22.5698 -7.8875 -7.1250 0.0000 -0.0000 -45.1732 47.2389 -3.1233 0.0000 -0.0000 0.0000 53.9847 33.2365 60.3244 -151.5374 39.5386 -109.5832 0.0000 -0.0000 -20.9277 23.0143 16.3021 6.7995 7.1250 -0.0000 -0.0000 31.7868 -13.4459 28.4241
0.1455 17.8006 1.1387 179.0440 64.8613 -167.0580 0.0000 0.0000 0.0000 -10.8942 -22.2112 -5.3511 0.0000 -0.0000 -0.0000 -0.0200 3.4871 -3.8492 1.8651 -8.5793 -24.4880 0.0000 0.0000 0.0000 19.1392 11.2811 -6.2028 -0.4749 -4.4195 12.2599 0.3945 -21.9594 -28.1402 -0.1756 2.6990 -7.4418 -1.7827 -3.0600 -6.4056 0.1499 -3.6466 -7.6543 1.0396 -1.5710 -4.2244 -11.0913 -8.8430 -7.3280 -15.5050 -5.6482 23.4010 -3.9531 -4.6718 8.6265 0.0000 0.0000 0.0000 -69.9258 -5.4315 51.6770 138.2725 -49.0607 -100.2656 -0.0000 0.0000 -18.5075 -19.9314 22.4964 -7.8991 -7.1250 0.0000 -0.0000 -45.1856 47.1695 -3.0297 0.0000 0.0000 0.0000 54.0369 33.5513 60.5183 -151.5534 39.5242 -109.5933 0.0000 -0.0000 -21.1497 23.1592 16.3168 6.8528 7.1250 -0.0000 -0.0000 31.8564 -13.4140 28.5421
0.1454 17.7996 1.1392 179.0390 64.8062 -167.0210 0.0000 0.0000 0.0000 -10.8706 -22.2745 -5.4034 0.0000 -0.0000 -0.0000 -0.0201 3.4944 -3.8535 1.8944 -8.6426 -24.6834 0.0000 0.0000 0.0000 19.1365 11.3157 -6.2562 -0.4771 -4.4299 12.2892 0.3932 -21.9920 -28.2009 -0.1760 2.7024 -7.4514 -1.7250 -3.1102 -6.4333 0.0739 -3.7143 -7.6763 0.9262 -1.6085 -4.2390 -11.6072 -9.4805 -6.5283 -15.7480 -6.6927 22.5368 -3.9646 -5.1454 8.1700 -0.0000 0.0000 0.0000 -69.7063 -5.3870 51.4168 138.3981 -48.9908 -100.3604 -0.0000 0.0000 -18.2347 -19.9267 22.5297 -7.9081 -7.1250 0.0000 -0.0000 -45.2053 47.1959 -3.0678 -0.0000 0.0000 0.0000 54.0942 33.7704 60.4732 -151.5534 39.5242 -109.5933 0.0000 -0.0000 -21.3322 23.2470 16.4199 6.9235 7.1250 -0.0000 -0.0000 31.8798 -13.3089 28.6605
0.1453 17.7993 1.1389 178.9840 64.7675 -167.0400 0.0000 0.0000 0.0000 -10.8773 -22.3222 -5.4375 0.0000 0.0000 0.0000 -0.0203 3.4946 -3.8435 1.9097 -8.6753 -24.7848 0.0000 0.0000 0.0000 19.1113 11.3092 -6.3227 -0.4818 -4.4512 12.3495 0.3860 -21.9848 -28.2449 -0.1828 2.7541 -7.5948 -1.6674 -3.1285 -6.4680 -0.0027 -3.7439 -7.6279 0.8113 -1.6304 -4.1764 -11.9465 -9.9548 -6.0927 -16.0107 -7.4513 21.8010 -4.0039 -5.4893 7.8282 -0.0000 -0.0000 0.0000 -69.5989 -5.6117 51.1814 138.3586 -49.0128 -100.3306 -0.0000 0.0000 -17.8615 -19.7071 22.4370 -7.7846 -7.1250 0.0000 -0.0000 -44.9735 47.1573 -2.9915 -0.0000 -0.0000 0.0000 53.9572 34.0889 60.2409 -151.6122 39.4708 -109.6307 0.0000 -0.0000 -21.6575 23.2522 16.2652 6.8623 7.1250 -0.0000 -0.0000 31.9132 -13.4487 28.5879
0.1457 17.7998 1.1391 178.9660 64.7543 -167.0830 0.0000 0.0000 0.0000 -10.8901 -22.3277 -5.4112 0.0000 -0.0000 -0.0000 -0.0212 3.4856 -3.7624 1.8923 -8.6380 -24.6693 0.0000 0.0000 0.0000 19.1127 11.3496 -6.3090 -0.4866 -4.4729 12.4111 0.3780 -21.9847 -28.3063 -0.1800 2.7330 -7.5363 -1.7101 -3.2426 -6.4077 0.0110 -3.8982 -7.6190 0.8474 -1.7061 -4.1933 -12.1114 -10.1483 -5.5672 -16.3324 -7.8600 21.0032 -4.0429 -5.6433 7.4478 0.0000 0.0000 0.0000 -69.4486 -5.4635 50.6971 138.5604 -48.9001 -100.4828 -0.0000 0.0000 -17.6002 -19.6710 22.5050 -7.7914 -7.1250 0.0000 -0.0000 -44.9935 47.2154 -3.0726 0.0000 0.0000 0.0000 54.0138 34.5373 60.3755 -151.6197 39.4640 -109.6355 0.0000 -0.0000 -21.9653 23.3264 16.1382 6.8347 7.1250 -0.0000 -0.0000 31.9758 -13.5543 28.5819
